<svg viewBox="0 0 900 340" xmlns="http://www.w3.org/2000/svg" font-family="Menlo, IBM Plex Mono, monospace">
  <rect x="0" y="0" width="900" height="340" rx="10" fill="#16160F"/>
  <text x="24" y="28" fill="#8A8A80" font-size="10" letter-spacing="1">YOUR CLOUDS</text>
  <text x="300" y="28" fill="#D5F26E" font-size="10" letter-spacing="1">THE PLANE — AGENTS ON YOUR DECLARED SLO</text>
  <text x="712" y="28" fill="#8A8A80" font-size="10" letter-spacing="1">OUTCOME</text>
  <rect x="24" y="42" width="200" height="86" rx="8" fill="none" stroke="#3A3A32"/>
  <text x="40" y="66" fill="#F4F4EE" font-size="11.5">competitor-cloud · qwen</text>
  <text x="40" y="86" fill="#E0A85B" font-size="9.5">SHADOW · attached read-only</text>
  <text x="40" y="104" fill="#8A8A80" font-size="9.5">no control affordance, ever</text>
  <rect x="24" y="142" width="200" height="86" rx="8" fill="none" stroke="#D5F26E"/>
  <text x="40" y="166" fill="#F4F4EE" font-size="11.5">baseten-dedicated · qwen</text>
  <text x="40" y="186" fill="#C6E96A" font-size="9.5">OPERATED · your cluster</text>
  <text x="40" y="204" fill="#8A8A80" font-size="9.5">full policy + remediation surface</text>
  <rect x="264" y="42" width="380" height="240" rx="8" fill="#1D1D15" stroke="#3A3A32"/>
  <text x="286" y="70" fill="#F4F4EE" font-size="11.5">workload runner — same prompts, every cloud</text>
  <text x="286" y="88" fill="#8A8A80" font-size="9.5">streaming TTFT/TPOT per request → your route ledger</text>
  <text x="286" y="118" fill="#F4F4EE" font-size="11.5">agent 1 · cross-cloud SLO monitor</text>
  <text x="286" y="136" fill="#8A8A80" font-size="9.5">goodput · p99s · measured $/Mtok — scored per provider</text>
  <text x="286" y="166" fill="#F4F4EE" font-size="11.5">agent 2 · auto-remediation (Baseten pools only)</text>
  <text x="286" y="184" fill="#8A8A80" font-size="9.5">closed allowlist: quarantine·probe·reinstate·escalate</text>
  <text x="286" y="202" fill="#8A8A80" font-size="9.5">guards: never orphan the last pool · sticky quarantine</text>
  <text x="286" y="232" fill="#F4F4EE" font-size="11.5">certify gate — parity + SLO, side by side</text>
  <text x="286" y="250" fill="#8A8A80" font-size="9.5">traffic moves only on PASS · a refusal is the system working</text>
  <rect x="684" y="42" width="192" height="240" rx="8" fill="none" stroke="#D5F26E" stroke-width="1.5"/>
  <text x="702" y="72" fill="#C6E96A" font-size="11.5">traffic on the cloud</text>
  <text x="702" y="90" fill="#C6E96A" font-size="11.5">that earned it</text>
  <text x="702" y="120" fill="#F4F4EE" font-size="10">rollback held for the</text>
  <text x="702" y="136" fill="#F4F4EE" font-size="10">route's life</text>
  <text x="702" y="166" fill="#F4F4EE" font-size="10">⇄ migrate-out is one</text>
  <text x="702" y="182" fill="#F4F4EE" font-size="10">click too — even when it</text>
  <text x="702" y="198" fill="#F4F4EE" font-size="10">costs Baseten business</text>
  <text x="702" y="228" fill="#8A8A80" font-size="9.5">that reversibility is why</text>
  <text x="702" y="244" fill="#8A8A80" font-size="9.5">attaching is safe</text>
  <line x1="224" y1="85" x2="264" y2="112" stroke="#3A3A32"/>
  <line x1="224" y1="185" x2="264" y2="162" stroke="#3A3A32"/>
  <line x1="644" y1="162" x2="684" y2="162" stroke="#D5F26E"/>
  <polygon points="682,157 682,167 690,162" fill="#D5F26E"/>
  <text x="24" y="316" fill="#8A8A80" font-size="9" letter-spacing=".5">TRUST RAIL · shadow-only on external clouds · measured / live / labeled — never estimated · ledger exportable · zero markup on external legs · reversible by design</text>
</svg>
